HIERARCHY
ROOT SpineBase
{
  OFFSET 0.000000 0.000000 0.000000
  CHANNELS 6 Xposition Yposition Zposition Zrotation Xrotation Yrotation
  JOINT SpineMid
  {
    OFFSET -0.000000 30.610323 0.000000
    CHANNELS 3 Zrotation Xrotation Yrotation
    JOINT SpineShoulder
    {
      OFFSET -0.165980 22.686992 -0.644742
      CHANNELS 3 Zrotation Xrotation Yrotation
      JOINT Neck
      {
        OFFSET -0.120623 7.478698 -0.510553
        CHANNELS 3 Zrotation Xrotation Yrotation
        JOINT Head
        {
          OFFSET -0.456155 13.611796 -0.254520
          CHANNELS 3 Zrotation Xrotation Yrotation
          End Site
          {
            OFFSET 0 0 0
          }
        }
      }
      JOINT ShoulderLeft
      {
        OFFSET -16.881043 -4.167693 5.464984
        CHANNELS 3 Zrotation Xrotation Yrotation
        JOINT ElbowLeft
        {
          OFFSET -4.755043 -27.837175 1.938270
          CHANNELS 3 Zrotation Xrotation Yrotation
          JOINT WristLeft
          {
            OFFSET 0.467461 -24.042971 -2.066963
            CHANNELS 3 Zrotation Xrotation Yrotation
            JOINT HandLeft
            {
              OFFSET 0.314545 -5.203164 0.555077
              CHANNELS 3 Zrotation Xrotation Yrotation
              JOINT HandTipLeft
              {
                OFFSET 0.726739 -7.588089 1.038632
                CHANNELS 3 Zrotation Xrotation Yrotation
                End Site
                {
                  OFFSET 0 0 0
                }
              }
              JOINT ThumbLeft
              {
                OFFSET 0.994025 -1.821014 -3.195911
                CHANNELS 3 Zrotation Xrotation Yrotation
                End Site
                {
                  OFFSET 0 0 0
                }
              }
            }
          }
        }
      }
      JOINT ShoulderRight
      {
        OFFSET 16.101471 -4.328318 -5.200545
        CHANNELS 3 Zrotation Xrotation Yrotation
        JOINT ElbowRight
        {
          OFFSET 8.380778 -28.466246 -0.680459
          CHANNELS 3 Zrotation Xrotation Yrotation
          JOINT WristRight
          {
            OFFSET 6.857993 -27.529895 -3.682490
            CHANNELS 3 Zrotation Xrotation Yrotation
            JOINT HandRight
            {
              OFFSET -0.560977 -7.022414 -3.241986
              CHANNELS 3 Zrotation Xrotation Yrotation
              JOINT HandTipRight
              {
                OFFSET 0.469738 -3.728136 -3.169126
                CHANNELS 3 Zrotation Xrotation Yrotation
                End Site
                {
                  OFFSET 0 0 0
                }
              }
              JOINT ThumbRight
              {
                OFFSET 3.043591 -0.191364 -3.507673
                CHANNELS 3 Zrotation Xrotation Yrotation
                End Site
                {
                  OFFSET 0 0 0
                }
              }
            }
          }
        }
      }
    }
  }
  JOINT HipLeft
  {
    OFFSET -8.046053 0.226780 -0.965890
    CHANNELS 3 Zrotation Xrotation Yrotation
    JOINT KneeLeft
    {
      OFFSET -0.925070 -34.884075 2.757439
      CHANNELS 3 Zrotation Xrotation Yrotation
      JOINT AnkleLeft
      {
        OFFSET 1.033450 -33.840226 10.189049
        CHANNELS 3 Zrotation Xrotation Yrotation
        JOINT FootLeft
        {
          OFFSET -3.688840 -4.577489 -13.335655
          CHANNELS 3 Zrotation Xrotation Yrotation
          End Site
          {
            OFFSET 0 0 0
          }
        }
      }
    }
  }
  JOINT HipRight
  {
    OFFSET 6.640043 0.309852 -5.997739
    CHANNELS 3 Zrotation Xrotation Yrotation
    JOINT KneeRight
    {
      OFFSET 5.450155 -36.253866 0.367215
      CHANNELS 3 Zrotation Xrotation Yrotation
      JOINT AnkleRight
      {
        OFFSET 6.040449 -39.517089 9.290214
        CHANNELS 3 Zrotation Xrotation Yrotation
        JOINT FootRight
        {
          OFFSET -3.891305 -4.521605 -13.280825
          CHANNELS 3 Zrotation Xrotation Yrotation
          End Site
          {
            OFFSET 0 0 0
          }
        }
      }
    }
  }
}
MOTION
Frames: 13
Frame Time: 0.033333
84.783835 82.663470 419.728672 -5.814392 -4.370041 7.575927 0.546124 -0.446277 -8.020095 -0.616724 -0.555340 -0.302237 4.522560 -6.581189 -0.226492 0.000000 0.000000 0.000000 4.243878 30.650955 -3.845908 24.963838 24.008982 4.124138 4.026223 4.731058 9.176910 -13.936796 3.621078 -6.106850 0.000000 0.000000 0.000000 0.000000 0.000000 0.000000 5.452910 2.075314 -0.720154 -43.927385 30.788720 29.517577 3.860290 -27.657376 -7.443028 10.979496 49.772985 15.844480 0.000000 0.000000 0.000000 0.000000 0.000000 0.000000 -2.626229 14.181340 -7.664725 6.368559 -5.980038 0.271997 10.288383 -25.148491 8.343542 0.000000 0.000000 0.000000 6.601851 8.418342 -7.292828 -0.763271 -9.480509 -1.804021 3.088419 4.359486 -5.258014 0.000000 0.000000 0.000000
83.943991 82.700126 419.305092 -6.437556 -4.681292 6.267207 0.599619 -0.393091 -6.774023 -0.398545 -0.518925 -0.320176 3.881974 -6.775996 -0.271085 0.000000 0.000000 0.000000 2.337852 32.676466 -3.515168 30.726797 26.723236 4.624472 -0.055856 11.055164 6.712500 -12.670112 -0.626264 -5.693072 0.000000 0.000000 0.000000 0.000000 0.000000 0.000000 6.007547 3.888508 -0.270877 -53.703781 32.785820 36.142242 7.482992 -23.426796 -7.117920 13.110261 34.422462 15.118871 0.000000 0.000000 0.000000 0.000000 0.000000 0.000000 -2.485650 14.978522 -6.310057 4.568028 -4.240333 -0.374420 12.279582 -25.053341 6.411072 0.000000 0.000000 0.000000 7.399620 9.437180 -5.991891 -0.557523 -10.712549 -1.839986 2.872649 4.877931 -6.126936 0.000000 0.000000 0.000000
83.132405 82.859167 418.709070 -6.932202 -4.844006 4.991927 0.483345 -0.433674 -5.549443 -0.193686 -0.498959 -0.341557 3.787897 -6.677845 -0.283048 0.000000 0.000000 0.000000 1.250823 36.630958 -3.591893 36.512907 27.490612 6.448816 -4.159284 19.597735 2.964194 -10.293299 -7.528600 -3.303836 0.000000 0.000000 0.000000 0.000000 0.000000 0.000000 5.190090 8.560146 1.231995 -57.254949 37.351630 40.739447 6.382382 -20.372436 -8.804376 5.825309 5.994989 16.182371 0.000000 0.000000 0.000000 0.000000 0.000000 0.000000 -2.986307 15.656933 -4.929788 3.240289 -2.354434 -0.891363 13.212981 -22.891671 5.843598 0.000000 0.000000 0.000000 7.542202 10.093388 -4.694290 0.299978 -11.613928 -1.708774 2.529599 5.365511 -7.222331 0.000000 0.000000 0.000000
82.597493 83.278360 418.078767 -6.891450 -4.938918 3.498955 0.279945 -0.588301 -4.069894 0.004672 -0.494889 -0.345489 2.967423 -6.588619 -0.310621 0.000000 0.000000 0.000000 2.193837 43.324077 -4.860287 41.489967 27.633294 9.846825 -6.542326 21.553457 1.143383 -6.620544 -7.348485 0.563060 0.000000 0.000000 0.000000 0.000000 0.000000 0.000000 3.263239 14.651860 3.416691 -57.611884 42.979419 44.288740 5.144146 -12.690101 -10.042967 0.182181 -21.603943 10.995868 0.000000 0.000000 0.000000 0.000000 0.000000 0.000000 -4.462343 16.014695 -3.244633 1.810726 0.204584 -1.413319 14.555507 -20.223137 4.853145 0.000000 0.000000 0.000000 6.661416 10.281714 -3.150641 1.378311 -11.927932 -1.525468 2.425799 5.725831 -8.466633 0.000000 0.000000 0.000000
81.616164 83.966002 417.389451 -7.224903 -5.063000 2.031662 0.218787 -0.501996 -2.631174 0.108243 -0.508368 -0.362670 3.531949 -7.859856 -0.383128 0.000000 0.000000 0.000000 5.701430 49.536084 -7.276640 46.485200 28.459680 13.174674 -8.877144 19.500355 0.685018 -1.060320 -0.714675 4.728960 0.000000 0.000000 0.000000 0.000000 0.000000 0.000000 1.874005 22.303853 6.389826 -57.753709 48.633408 47.182472 8.606917 -10.358826 -11.643553 -15.282673 -43.366459 -0.809583 0.000000 0.000000 0.000000 0.000000 0.000000 0.000000 -5.310264 16.048175 -1.659299 0.190618 3.052838 -1.835849 16.893548 -22.393835 7.848051 0.000000 0.000000 0.000000 6.761814 10.652859 -1.698778 2.372586 -12.605469 -1.225575 1.766979 6.255404 -9.641535 0.000000 0.000000 0.000000
80.396875 84.889123 416.739631 -7.619245 -5.314609 2.215232 0.465185 -0.756258 -2.884702 0.135588 -0.549589 -0.375842 3.223880 -7.485127 -0.395449 0.000000 0.000000 0.000000 11.322072 55.172868 -11.211900 51.389927 29.208305 16.323875 -12.225796 18.995497 -0.981597 5.920794 2.180936 11.599453 0.000000 0.000000 0.000000 0.000000 0.000000 0.000000 -1.584334 30.800441 10.527454 -51.216622 55.339090 48.175157 14.399944 -7.281730 -12.767377 -29.836035 -50.533129 -10.361914 0.000000 0.000000 0.000000 0.000000 0.000000 0.000000 -5.375899 16.442628 -1.794688 -0.996933 5.069022 -2.073839 19.354270 -27.758986 14.858552 0.000000 0.000000 0.000000 7.580513 10.817427 -2.001336 3.034415 -13.081444 -0.907987 1.032490 6.631276 -10.546606 0.000000 0.000000 0.000000
78.783979 84.902923 415.977712 -7.571418 -5.663020 2.974803 0.448866 -0.634601 -3.658434 0.346678 -0.639447 -0.379239 2.090287 -7.913821 -0.464060 0.000000 0.000000 0.000000 20.647248 60.017618 -18.186419 52.564673 29.070291 19.575329 -12.860252 17.312496 -0.092076 8.993341 5.208949 13.449302 0.000000 0.000000 0.000000 0.000000 0.000000 0.000000 -4.864052 37.246947 14.312081 -41.844978 62.249171 48.602918 25.561937 -4.360013 -11.311756 -26.206474 -39.820518 -1.583400 0.000000 0.000000 0.000000 0.000000 0.000000 0.000000 -5.393172 16.978167 -2.511795 -2.176451 6.680170 -2.270530 22.495434 -32.783436 20.763970 0.000000 0.000000 0.000000 8.793298 10.618451 -3.008584 2.888551 -13.108256 -0.615084 0.137718 6.947699 -10.685289 0.000000 0.000000 0.000000
76.988536 84.241936 415.283948 -6.997276 -6.303515 4.155571 0.449832 -0.743866 -4.844688 0.394796 -0.696080 -0.363798 -1.238736 -6.485479 -0.406902 0.000000 0.000000 0.000000 29.667103 63.123738 -25.669915 53.290384 29.230702 21.581895 -9.755875 15.948284 3.594042 4.763294 6.377656 6.886894 0.000000 0.000000 0.000000 0.000000 0.000000 0.000000 -9.402848 45.738501 19.867694 -17.017070 62.922808 33.526477 40.544976 7.849394 -10.461254 -6.785829 -17.851910 10.577096 0.000000 0.000000 0.000000 0.000000 0.000000 0.000000 -5.662606 18.173895 -3.569015 -3.098528 7.794809 -2.407674 23.359933 -32.580463 20.077111 0.000000 0.000000 0.000000 9.654734 10.657264 -4.444488 2.858182 -13.019464 -0.238408 -0.882955 6.981988 -10.944782 0.000000 0.000000 0.000000
74.862751 83.082109 414.468455 -6.354325 -7.282958 5.363941 0.351253 -0.750575 -6.059177 0.396070 -0.658321 -0.347205 -4.395504 -3.456653 -0.041417 0.000000 0.000000 0.000000 40.946565 65.515876 -35.330217 52.081269 27.833660 24.010587 -4.888149 12.984898 10.588378 -2.766351 9.037406 -4.904125 0.000000 0.000000 0.000000 0.000000 0.000000 0.000000 -13.445128 52.763769 25.193490 -1.163512 62.586454 25.535938 71.063974 10.414421 5.586629 -14.909338 -30.141460 5.488246 0.000000 0.000000 0.000000 0.000000 0.000000 0.000000 -5.981940 20.118029 -4.566102 -3.171647 7.885710 -2.425803 24.370704 -34.365354 21.429332 0.000000 0.000000 0.000000 10.997964 11.020766 -6.025005 2.358333 -13.015821 0.111162 -1.982662 6.924036 -10.940086 0.000000 0.000000 0.000000
72.419302 81.564904 413.679627 -6.065458 -8.410495 6.709981 0.264550 -0.705979 -7.443626 0.349679 -0.566073 -0.344111 -7.153062 0.693907 0.669639 0.000000 0.000000 0.000000 56.800305 66.204939 -48.232450 48.754864 25.528394 25.669882 1.099042 9.885629 19.666251 -5.233467 7.770875 -6.246649 0.000000 0.000000 0.000000 0.000000 0.000000 0.000000 -17.534452 57.732106 30.280130 10.367176 66.014357 23.335471 74.174044 8.258078 12.138531 -25.028563 -31.407737 -0.643763 0.000000 0.000000 0.000000 0.000000 0.000000 0.000000 -5.249487 22.359350 -5.841368 -3.247602 7.326336 -2.479386 23.279205 -31.892455 16.747432 0.000000 0.000000 0.000000 13.388970 11.142885 -7.942149 1.235563 -12.769008 0.455955 -3.180627 6.735235 -10.625241 0.000000 0.000000 0.000000
69.992993 79.882360 412.764525 -5.546686 -9.747926 8.012951 0.172223 -0.676012 -8.764062 0.258851 -0.453001 -0.331097 -7.342471 6.342481 1.513274 0.000000 0.000000 0.000000 68.573536 67.190550 -59.432661 47.023199 23.076102 28.700927 5.297063 6.468817 27.365143 -9.925477 11.197505 -12.773141 0.000000 0.000000 0.000000 0.000000 0.000000 0.000000 -17.566964 60.909462 31.521521 19.645584 72.623552 20.592020 38.088908 8.127569 -26.264967 26.382350 -33.200023 41.283318 0.000000 0.000000 0.000000 0.000000 0.000000 0.000000 -4.813846 25.043202 -7.013064 -2.565564 6.171127 -2.360527 21.389192 -27.145333 9.255679 0.000000 0.000000 0.000000 15.066910 11.386934 -9.798802 0.964815 -12.516583 0.950594 -4.841527 6.568223 -9.812368 0.000000 0.000000 0.000000
67.494131 78.328328 411.776158 -5.584181 -11.104166 8.845861 0.267371 -0.574013 -9.679851 0.199359 -0.276276 -0.329488 -2.099601 13.645204 1.502210 0.000000 0.000000 0.000000 79.067995 66.624978 -68.605588 46.391897 20.281979 31.410155 8.600984 6.767079 30.678832 -16.078895 12.160069 -15.752496 0.000000 0.000000 0.000000 0.000000 0.000000 0.000000 -21.638629 61.510020 34.668872 43.679783 74.594149 10.106365 12.496119 8.672677 -54.643798 46.857444 -12.644774 51.508702 0.000000 0.000000 0.000000 0.000000 0.000000 0.000000 -4.375898 28.016262 -7.684414 -0.588440 4.116828 -1.878535 19.711210 -24.178108 3.146861 0.000000 0.000000 0.000000 16.739669 11.560251 -11.231809 1.421938 -12.147946 1.556738 -6.581953 6.367059 -9.533561 0.000000 0.000000 0.000000
64.949785 77.117371 410.833306 -5.795141 -12.098903 9.420401 -0.068364 -0.191992 -10.295475 0.310264 -0.241449 -0.363328 5.576287 18.649446 0.132965 0.000000 0.000000 0.000000 84.264165 67.163498 -73.762907 47.926256 19.105324 34.506383 8.620896 7.486919 29.650510 -20.896028 17.028831 -21.917829 0.000000 0.000000 0.000000 0.000000 0.000000 0.000000 -22.179712 60.088843 34.419345 68.179632 73.612414 -2.881454 1.632603 15.682988 -71.960648 38.886685 -6.341857 45.950437 0.000000 0.000000 0.000000 0.000000 0.000000 0.000000 -3.453659 30.375563 -8.298372 1.316186 1.927397 -1.265059 17.362305 -21.383715 -0.905005 0.000000 0.000000 0.000000 18.667485 11.283166 -12.392456 1.529537 -11.532374 2.105266 -8.308487 6.213601 -9.053840 0.000000 0.000000 0.000000
